<?xml version="1.0" encoding="utf-8"?>
<!DOCTYPE svg PUBLIC "-//W3C//DTD SVG 1.1//EN" "http://www.w3.org/Graphics/SVG/1.1/DTD/svg11.dtd">
<svg version="1.1"
	 xmlns:svg="http://www.w3.org/2000/svg" xmlns:rdf="http://www.w3.org/1999/02/22-rdf-syntax-ns#" xmlns:cc="http://creativecommons.org/ns#" xmlns:dc="http://purl.org/dc/elements/1.1/"
	 xmlns="http://www.w3.org/2000/svg" xmlns:xlink="http://www.w3.org/1999/xlink" x="0px" y="0px" width="516.631px"
	 height="103.566px" viewBox="0 0 516.631 103.566" enable-background="new 0 0 516.631 103.566" xml:space="preserve">
<g>
	<path fill="#212529" d="M17.533,25.859c0-6.634,2.049-11.903,8.358-11.903c6.309,0,8.357,5.269,8.357,11.903
		c0,6.635-2.049,11.968-8.357,11.968C19.582,37.827,17.533,32.494,17.533,25.859z M29.956,25.859c0-4.488-0.91-8.033-4.064-8.033
		s-4.065,3.545-4.065,8.033c0,4.553,0.911,8.13,4.065,8.13S29.956,30.412,29.956,25.859z"/>
	<path fill="#212529" d="M25.892,0C40.19,0,51.783,11.592,51.783,25.892S40.19,51.783,25.892,51.783
		C11.592,51.783,0,63.375,0,77.675c0,14.3,11.592,25.892,25.892,25.892c28.599,0,51.783-23.184,51.783-51.783S54.49,0,25.892,0z
		 M32.579,89.22H20.821V85.61h3.748V71.553l-3.04,1.738l-2.325-3.511l5.788-3.65h3.838V85.61h3.749V89.22z"/>
</g>
<path fill="#212529" d="M115.204,31.273c4.704,0,13.122,1.981,13.122,7.577v3.417h-4.555v-1.981c0-2.922-4.953-4.407-8.468-4.407
	c-7.032,0-12.479,5.298-12.479,13.172c0,7.626,5.495,13.717,12.627,13.717c6.933,0,11.042-4.753,11.042-4.753l2.674,3.565
	c0,0-4.95,5.843-13.766,5.843c-10.449,0-17.728-8.072-17.728-18.372C97.675,38.949,105.201,31.273,115.204,31.273z"/>
<path fill="#212529" d="M145.956,41.177c7.478,0,13.52,5.497,13.52,13.073c0,7.626-6.042,13.172-13.52,13.172
	s-13.47-5.546-13.47-13.172C132.486,46.674,138.479,41.177,145.956,41.177z M145.956,63.263c4.754,0,8.616-3.764,8.616-9.012
	c0-5.2-3.862-8.914-8.616-8.914c-4.705,0-8.566,3.714-8.566,8.914C137.39,59.499,141.251,63.263,145.956,63.263z"/>
<path fill="#212529" d="M174.43,41.177c5.794,0,7.727,3.862,7.727,3.862h0.098c0,0-0.098-0.743-0.098-1.683v-6.29
	c0-0.742-0.397-1.089-1.09-1.089h-2.03v-4.11h4.752c2.229,0,3.17,0.941,3.17,3.17v26.591c0,0.743,0.396,1.09,1.091,1.09h2.028v4.11
	h-4.604c-2.179,0-3.071-0.99-3.071-2.674c0-0.743,0.051-1.288,0.051-1.288h-0.1c0,0-2.079,4.556-8.219,4.556
	c-6.786,0-11.044-5.348-11.044-13.123C163.09,46.327,167.796,41.177,174.43,41.177z M182.303,54.25c0-4.457-2.327-8.914-7.13-8.914
	c-3.912,0-7.181,3.268-7.181,8.963c0,5.447,2.923,8.963,7.082,8.963C178.787,63.263,182.303,60.639,182.303,54.25z"/>
<path fill="#212529" d="M205.578,41.177c7.031,0,10.795,5.249,10.795,11.736c0,0.644-0.148,1.981-0.148,1.981h-18.272
	c0.298,5.348,4.159,8.369,8.616,8.369c4.309,0,7.329-2.921,7.329-2.921l2.08,3.417c0,0-3.714,3.665-9.656,3.665
	c-7.924,0-13.32-5.695-13.32-13.123C193.001,46.327,198.448,41.177,205.578,41.177z M211.422,51.378
	c-0.148-4.159-2.774-6.388-5.894-6.388c-3.664,0-6.635,2.229-7.378,6.388H211.422z"/>
<path fill="#212529" d="M222.762,46.971c0-0.743-0.396-1.09-1.09-1.09h-2.029v-4.109h4.556c2.179,0,3.219,0.892,3.219,2.922v1.584
	c0,0.99-0.1,1.734-0.1,1.734h0.1c1.188-3.665,4.06-6.537,7.921-6.537c0.646,0,1.289,0.099,1.289,0.099v4.753
	c0,0-0.644-0.148-1.436-0.148c-3.07,0-5.893,2.179-7.033,5.893c-0.445,1.436-0.593,2.971-0.593,4.507v10.25h-4.804V46.971z"/>
<path fill="#212529" d="M242.817,36.126h-3.219v-4.259h14.162c10.646,0,17.678,6.388,17.678,17.431
	c0,11.092-7.031,17.53-17.678,17.53h-7.773c-2.229,0-3.17-0.94-3.17-3.169V36.126z M248.859,62.57h4.554
	c7.775,0,12.876-4.655,12.876-13.271c0-8.567-5.15-13.172-12.876-13.172h-5.645V61.48C247.769,62.173,248.165,62.57,248.859,62.57z"
	/>
<path fill="#212529" d="M288.623,41.177c7.477,0,13.518,5.497,13.518,13.073c0,7.626-6.041,13.172-13.518,13.172
	c-7.479,0-13.47-5.546-13.47-13.172C275.153,46.674,281.144,41.177,288.623,41.177z M288.623,63.263
	c4.753,0,8.614-3.764,8.614-9.012c0-5.2-3.861-8.914-8.614-8.914c-4.706,0-8.567,3.714-8.567,8.914
	C280.056,59.499,283.917,63.263,288.623,63.263z"/>
<path fill="#212529" d="M304.023,72.869c1.832,0,5.348-0.594,5.348-5.497V46.971c0-0.743-0.396-1.09-1.089-1.09h-2.031v-4.109h4.755
	c2.228,0,3.17,0.941,3.17,3.169V67.67c0,8.369-6.439,9.359-9.608,9.359c-0.99,0-1.633-0.099-1.633-0.099v-4.11
	C302.935,72.82,303.379,72.869,304.023,72.869z M309.47,31.867h4.358v5.002h-4.358V31.867z"/>
<path fill="#212529" d="M333.34,41.177c7.476,0,13.518,5.497,13.518,13.073c0,7.626-6.042,13.172-13.518,13.172
	c-7.479,0-13.47-5.546-13.47-13.172C319.87,46.674,325.861,41.177,333.34,41.177z M333.34,63.263c4.752,0,8.615-3.764,8.615-9.012
	c0-5.2-3.863-8.914-8.615-8.914c-4.705,0-8.568,3.714-8.568,8.914C324.771,59.499,328.635,63.263,333.34,63.263z"/>
<path fill="#212529" d="M372.678,36.126h-7.031c-0.693,0-1.089,0.347-1.089,1.089v2.228h-4.409v-4.605
	c0-2.228,0.744-2.972,2.973-2.972h24.065c2.229,0,2.972,0.744,2.972,2.972v4.605h-4.407v-2.228c0-0.743-0.396-1.089-1.09-1.089
	h-7.03v30.702h-4.953V36.126z"/>
<path fill="#212529" d="M402.439,41.177c7.477,0,13.519,5.497,13.519,13.073c0,7.626-6.042,13.172-13.519,13.172
	c-7.479,0-13.469-5.546-13.469-13.172C388.971,46.674,394.961,41.177,402.439,41.177z M402.439,63.263
	c4.754,0,8.615-3.764,8.615-9.012c0-5.2-3.861-8.914-8.615-8.914c-4.705,0-8.567,3.714-8.567,8.914
	C393.872,59.499,397.734,63.263,402.439,63.263z"/>
<path fill="#212529" d="M421.406,37.067c0-0.742-0.397-1.089-1.09-1.089h-2.03v-4.11h4.755c2.227,0,3.169,0.941,3.169,3.17v26.591
	c0,0.743,0.396,1.09,1.089,1.09h2.03v4.11h-4.755c-2.228,0-3.168-0.94-3.168-3.169V37.067z"/>
<path fill="#212529" d="M444.928,41.177c7.031,0,10.794,5.249,10.794,11.736c0,0.644-0.147,1.981-0.147,1.981h-18.273
	c0.298,5.348,4.16,8.369,8.617,8.369c4.307,0,7.328-2.921,7.328-2.921l2.08,3.417c0,0-3.715,3.665-9.656,3.665
	c-7.922,0-13.32-5.695-13.32-13.123C432.35,46.327,437.797,41.177,444.928,41.177z M450.771,51.378
	c-0.148-4.159-2.773-6.388-5.893-6.388c-3.664,0-6.637,2.229-7.378,6.388H450.771z"/>
<path fill="#212529" d="M471.074,41.177c5.793,0,7.724,3.862,7.724,3.862h0.099c0,0-0.099-0.743-0.099-1.683v-6.29
	c0-0.742-0.396-1.089-1.088-1.089h-2.031v-4.11h4.753c2.23,0,3.17,0.941,3.17,3.17v26.591c0,0.743,0.396,1.09,1.091,1.09h2.029v4.11
	h-4.605c-2.178,0-3.071-0.99-3.071-2.674c0-0.743,0.052-1.288,0.052-1.288h-0.1c0,0-2.079,4.556-8.22,4.556
	c-6.785,0-11.044-5.348-11.044-13.123C459.733,46.327,464.438,41.177,471.074,41.177z M478.946,54.25
	c0-4.457-2.326-8.914-7.13-8.914c-3.913,0-7.181,3.268-7.181,8.963c0,5.447,2.923,8.963,7.082,8.963
	C475.43,63.263,478.946,60.639,478.946,54.25z"/>
<path fill="#212529" d="M503.112,41.177c7.478,0,13.519,5.497,13.519,13.073c0,7.626-6.041,13.172-13.519,13.172
	c-7.477,0-13.468-5.546-13.468-13.172C489.645,46.674,495.636,41.177,503.112,41.177z M503.112,63.263
	c4.755,0,8.617-3.764,8.617-9.012c0-5.2-3.862-8.914-8.617-8.914c-4.704,0-8.566,3.714-8.566,8.914
	C494.546,59.499,498.408,63.263,503.112,63.263z"/>
</svg>
